HIERARCHY
ROOT Hips
{
  OFFSET -27.3825 93.2414 -29.4013
  CHANNELS 6 Xposition Yposition Zposition Zrotation Xrotation Yrotation
  JOINT LeftUpLeg
  {
    OFFSET 9.63379 -0.250344 0
    CHANNELS 6 Xposition Yposition Zposition Zrotation Xrotation Yrotation
    JOINT LeftLeg
    {
      OFFSET 0 -40.4779 -1.71313
      CHANNELS 6 Xposition Yposition Zposition Zrotation Xrotation Yrotation
      JOINT LeftFoot
      {
        OFFSET 0.0126047 -40.4416 -0.864524
        CHANNELS 6 Xposition Yposition Zposition Zrotation Xrotation Yrotation
        JOINT LeftToeBase
        {
          OFFSET -0.183287 -12.1867 8.28226
          CHANNELS 6 Xposition Yposition Zposition Zrotation Xrotation Yrotation
          End Site
          {
            OFFSET 0 0 9.15615
          }
        }
      }
    }
  }
  JOINT RightUpLeg
  {
    OFFSET -9.63379 -0.250344 0
    CHANNELS 6 Xposition Yposition Zposition Zrotation Xrotation Yrotation
    JOINT RightLeg
    {
      OFFSET 0 -40.478 -1.71313
      CHANNELS 6 Xposition Yposition Zposition Zrotation Xrotation Yrotation
      JOINT RightFoot
      {
        OFFSET -0.0126047 -40.4414 -0.864524
        CHANNELS 6 Xposition Yposition Zposition Zrotation Xrotation Yrotation
        JOINT RightToeBase
        {
          OFFSET 0.183287 -12.1867 8.28226
          CHANNELS 6 Xposition Yposition Zposition Zrotation Xrotation Yrotation
          End Site
          {
            OFFSET 0.00319481 0 9.156
          }
        }
      }
    }
  }
  JOINT Spine
  {
    OFFSET 0 5.60909 -1.89659
    CHANNELS 6 Xposition Yposition Zposition Zrotation Xrotation Yrotation
    JOINT Spine1
    {
      OFFSET 0 6.56349 1.09934
      CHANNELS 6 Xposition Yposition Zposition Zrotation Xrotation Yrotation
      JOINT Spine2
      {
        OFFSET 0 7.57662 1.04304
        CHANNELS 6 Xposition Yposition Zposition Zrotation Xrotation Yrotation
        JOINT Spine3
        {
          OFFSET 0 8.29213 0.399731
          CHANNELS 6 Xposition Yposition Zposition Zrotation Xrotation Yrotation
          JOINT Spine4
          {
            OFFSET 0 8.9581 -0.526302
            CHANNELS 6 Xposition Yposition Zposition Zrotation Xrotation Yrotation
            JOINT Neck
            {
              OFFSET 0 18.4163 -4.35419
              CHANNELS 6 Xposition Yposition Zposition Zrotation Xrotation Yrotation
              JOINT Head
              {
                OFFSET 0 8.97127 1.78542
                CHANNELS 6 Xposition Yposition Zposition Zrotation Xrotation Yrotation
                End Site
                {
                  OFFSET 0 0 0
                }
              }
            }
            JOINT LeftShoulder
            {
              OFFSET 6.14423 15.3316 -3.79324
              CHANNELS 6 Xposition Yposition Zposition Zrotation Xrotation Yrotation
              JOINT LeftArm
              {
                OFFSET 9.01906 -1.11411 -1.79347
                CHANNELS 6 Xposition Yposition Zposition Zrotation Xrotation Yrotation
                JOINT LeftForeArm
                {
                  OFFSET 27.687 0 0
                  CHANNELS 6 Xposition Yposition Zposition Zrotation Xrotation Yrotation
                  JOINT LeftHand
                  {
                    OFFSET 27.8738 0 0
                    CHANNELS 6 Xposition Yposition Zposition Zrotation Xrotation Yrotation
                    End Site
                    {
                      OFFSET 0 0 0
                    }
                  }
                }
              }
            }
            JOINT RightShoulder
            {
              OFFSET -6.14423 15.3316 -3.79324
              CHANNELS 6 Xposition Yposition Zposition Zrotation Xrotation Yrotation
              JOINT RightArm
              {
                OFFSET -9.01884 -1.11411 -1.79347
                CHANNELS 6 Xposition Yposition Zposition Zrotation Xrotation Yrotation
                JOINT RightForeArm
                {
                  OFFSET -27.0381 0.00109999 0
                  CHANNELS 6 Xposition Yposition Zposition Zrotation Xrotation Yrotation
                  JOINT RightHand
                  {
                    OFFSET -28.5227 0 0
                    CHANNELS 6 Xposition Yposition Zposition Zrotation Xrotation Yrotation
                    End Site
                    {
                      OFFSET 0 0 0
                    }
                  }
                }
              }
            }
          }
        }
      }
    }
  }
}
MOTION
Frames:	6
Frame Time:	0.00833333
-27.3617 93.2482 -29.5475 -0.380027 0.0829881 0.144229 9.63379 -0.250344 -7.15256e-007 5.37052 -1.73827 9.90207 0 -40.4779 -1.71313 0.0408113 2.62678 -0.12191 0.0126047 -40.4416 -0.864524 0.267489 -0.0926424 -0.00552328 -0.183287 -12.1867 8.28226 4.23581e-011 -1.205e-010 -1.02754e-010 -9.63379 -0.250344 -7.15256e-007 -8.18323 -1.33832 -0.104708 0 -40.478 -1.71313 4.34716 4.3953 3.45613 -0.0126047 -40.4414 -0.864524 -0.151916 -1.02121 0.00216438 0.183287 -12.1867 8.28226 5.37423e-011 -2.03436e-012 1.67249e-011 -2.64698e-023 5.60909 -1.89659 0.390498 -0.0269498 -0.0151089 0 6.56349 1.09934 0.0306356 -0.0542551 -0.0120023 0 7.57662 1.04304 0.0306362 -0.0542508 -0.0120163 0 8.29213 0.399731 0.0306367 -0.0542465 -0.0120302 0 8.9581 -0.526302 0.0306373 -0.0542421 -0.0120441 0 18.4163 -4.35419 -0.0480062 1.49761 -0.0565439 1.05879e-022 8.97127 1.78542 0.412923 0.584703 -0.164534 6.14423 15.3316 -3.79324 -0.655947 -0.0583464 4.03113 9.01906 -1.11411 -1.79347 -1.90547 1.12055 -3.74995 27.687 0 0 -0.0379964 -9.62957 4.64434e-012 27.8738 0 0 2.83564 -1.00673 -0.344888 -6.14423 15.3316 -3.79324 6.52399 0.26497 -1.69503 -9.01884 -1.11411 -1.79347 -7.47105 10.0412 10.9364 -27.0381 0.00109999 5.96046e-008 2.29881 -9.6203 1.2801e-007 -28.5227 0 0 -8.22325 -0.445875 1.64095 
-27.3633 93.248 -29.5464 -0.384451 0.0769031 0.143417 9.63379 -0.250344 -7.15256e-007 5.37347 -1.73158 9.90277 0 -40.4779 -1.71313 0.0446266 2.62602 -0.121909 0.0126047 -40.4416 -0.864524 0.267489 -0.0926658 -0.00552328 -0.183287 -12.1867 8.28226 4.23581e-011 -1.205e-010 -1.02754e-010 -9.63379 -0.250344 -7.15256e-007 -8.18086 -1.3318 -0.112418 0 -40.478 -1.71313 4.34999 4.39662 3.45476 -0.0126047 -40.4414 -0.864524 -0.151916 -1.02183 0.00216438 0.183287 -12.1867 8.28226 5.37423e-011 -2.03436e-012 1.67249e-011 -2.64698e-023 5.60909 -1.89659 0.391082 -0.0266822 -0.0151802 0 6.56349 1.09934 0.0309218 -0.053499 -0.0120527 0 7.57662 1.04304 0.0309223 -0.0534946 -0.0120663 0 8.29213 0.399731 0.0309229 -0.0534901 -0.0120799 0 8.9581 -0.526302 0.0309234 -0.0534857 -0.0120935 0 18.4163 -4.35419 -0.0509745 1.50631 -0.056314 1.05879e-022 8.97127 1.78542 0.418012 0.567523 -0.166329 6.14423 15.3316 -3.79324 -0.645926 -0.0585023 4.02479 9.01906 -1.11411 -1.79347 -1.90659 1.1142 -3.74317 27.687 0 0 -0.0353451 -9.60081 4.64395e-012 27.8738 0 0 2.80916 -1.02121 -0.397033 -6.14423 15.3316 -3.79324 6.53314 0.26495 -1.6964 -9.01884 -1.11411 -1.79347 -7.48073 10.0412 10.9361 -27.0381 0.00109999 5.96046e-008 2.30181 -9.62911 1.28014e-007 -28.5227 0 0 -8.26022 -0.452308 1.66347 
-27.3651 93.2478 -29.5446 -0.389574 0.0696004 0.141576 9.63379 -0.250344 -7.15256e-007 5.37734 -1.72326 9.90446 0 -40.4779 -1.71313 0.0483734 2.62557 -0.121909 0.0126047 -40.4416 -0.864524 0.267489 -0.0926892 -0.00552328 -0.183287 -12.1867 8.28226 4.23581e-011 -1.205e-010 -1.02754e-010 -9.63379 -0.250344 -7.15256e-007 -8.17778 -1.32332 -0.123408 0 -40.478 -1.71313 4.35219 4.39695 3.45386 -0.0126047 -40.4414 -0.864524 -0.151916 -1.022 0.00216438 0.183287 -12.1867 8.28226 5.37423e-011 -2.03436e-012 1.67249e-011 -2.64698e-023 5.60909 -1.89659 0.391489 -0.0264057 -0.0152516 0 6.56349 1.09934 0.0311917 -0.0527293 -0.0120817 0 7.57662 1.04304 0.0311922 -0.0527247 -0.0120949 0 8.29213 0.399731 0.0311928 -0.0527202 -0.0121082 0 8.9581 -0.526302 0.0311933 -0.0527157 -0.0121215 0 18.4163 -4.35419 -0.057701 1.51731 -0.0551189 1.05879e-022 8.97127 1.78542 0.42655 0.551346 -0.169129 6.14423 15.3316 -3.79324 -0.634794 -0.0586561 4.01743 9.01906 -1.11411 -1.79347 -1.90753 1.10616 -3.73576 27.687 0 0 -0.0318253 -9.57031 4.64353e-012 27.8738 0 0 2.778 -1.03804 -0.456213 -6.14423 15.3316 -3.79324 6.54279 0.26493 -1.69737 -9.01884 -1.11411 -1.79347 -7.4912 10.0434 10.9359 -27.0381 0.00109999 5.96046e-008 2.30594 -9.63733 1.28017e-007 -28.5227 0 0 -8.30277 -0.459462 1.68387 
-27.367 93.2476 -29.543 -0.394161 0.0626612 0.138241 9.63379 -0.250344 -7.15256e-007 5.38115 -1.71521 9.90651 0 -40.4779 -1.71313 0.0514612 2.62569 -0.121909 0.0126047 -40.4416 -0.864524 0.267489 -0.0927127 -0.00552328 -0.183287 -12.1867 8.28226 4.23581e-011 -1.205e-010 -1.02754e-010 -9.63379 -0.250344 -7.15256e-007 -8.17516 -1.31532 -0.135549 0 -40.478 -1.71313 4.35407 4.39659 3.453 -0.0126047 -40.4414 -0.864524 -0.151916 -1.02186 0.00216438 0.183287 -12.1867 8.28226 5.37423e-011 -2.03436e-012 1.67249e-011 -2.64698e-023 5.60909 -1.89659 0.391767 -0.0261194 -0.0153232 0 6.56349 1.09934 0.0314441 -0.0519569 -0.0120913 0 7.57662 1.04304 0.0314446 -0.0519523 -0.0121042 0 8.29213 0.399731 0.0314451 -0.0519478 -0.0121171 0 8.9581 -0.526302 0.0314456 -0.0519432 -0.0121301 0 18.4163 -4.35419 -0.0662048 1.52662 -0.0528524 1.05879e-022 8.97127 1.78542 0.435502 0.537368 -0.171523 6.14423 15.3316 -3.79324 -0.624482 -0.0588075 4.01218 9.01906 -1.11411 -1.79347 -1.90708 1.09718 -3.72939 27.687 0 0 -0.0276756 -9.54244 4.64315e-012 27.8738 0 0 2.7462 -1.05472 -0.511161 -6.14423 15.3316 -3.79324 6.55021 0.264911 -1.69785 -9.01884 -1.11411 -1.79347 -7.4996 10.0463 10.9362 -27.0381 0.00109999 5.96046e-008 2.30969 -9.64605 1.2802e-007 -28.5227 0 0 -8.34191 -0.466056 1.70286 
-27.3688 93.247 -29.5423 -0.39698 0.0576666 0.132947 9.63379 -0.250344 -7.15256e-007 5.38394 -1.70931 9.90828 0 -40.4779 -1.71313 0.0532993 2.62665 -0.12191 0.0126047 -40.4416 -0.864524 0.267489 -0.0927361 -0.00552328 -0.183287 -12.1867 8.28226 4.23581e-011 -1.205e-010 -1.02754e-010 -9.63379 -0.250344 -7.15256e-007 -8.17419 -1.31025 -0.146708 0 -40.478 -1.71313 4.35594 4.3958 3.45176 -0.0126047 -40.4414 -0.864524 -0.151916 -1.0216 0.00216438 0.183287 -12.1867 8.28226 5.37423e-011 -2.03436e-012 1.67249e-011 -2.64698e-023 5.60909 -1.89659 0.391965 -0.0258222 -0.0153948 0 6.56349 1.09934 0.0316777 -0.0511928 -0.0120836 0 7.57662 1.04304 0.0316782 -0.0511883 -0.0120962 0 8.29213 0.399731 0.0316787 -0.0511837 -0.0121088 0 8.9581 -0.526302 0.0316792 -0.0511792 -0.0121213 0 18.4163 -4.35419 -0.0745046 1.53019 -0.0494087 1.05879e-022 8.97127 1.78542 0.441837 0.526787 -0.172104 6.14423 15.3316 -3.79324 -0.616921 -0.0589563 4.0122 9.01906 -1.11411 -1.79347 -1.90403 1.088 -3.72573 27.687 0 0 -0.0231344 -9.52155 4.64287e-012 27.8738 0 0 2.71785 -1.06877 -0.550605 -6.14423 15.3316 -3.79324 6.55267 0.264891 -1.69779 -9.01884 -1.11411 -1.79347 -7.50311 10.0483 10.9372 -27.0381 0.00109999 5.96046e-008 2.31159 -9.65633 1.28024e-007 -28.5227 0 0 -8.36869 -0.47081 1.7211 
-27.3706 93.246 -29.5427 -0.397455 0.054993 0.12477 9.63379 -0.250344 -7.15256e-007 5.38552 -1.70544 9.90989 0 -40.4779 -1.71313 0.0534362 2.62795 -0.12191 0.0126047 -40.4416 -0.864524 0.267489 -0.0927595 -0.00552328 -0.183287 -12.1867 8.28226 4.23581e-011 -1.205e-010 -1.02754e-010 -9.63379 -0.250344 -7.15256e-007 -8.17524 -1.30836 -0.157888 0 -40.478 -1.71313 4.35766 4.3939 3.45006 -0.0126047 -40.4414 -0.864524 -0.151916 -1.02128 0.00216438 0.183287 -12.1867 8.28226 5.37423e-011 -2.03436e-012 1.67249e-011 -2.64698e-023 5.60909 -1.89659 0.392138 -0.0255411 -0.0154666 0 6.56349 1.09934 0.0318912 -0.0504927 -0.0120606 0 7.57662 1.04304 0.0318917 -0.0504883 -0.0120728 0 8.29213 0.399731 0.0318922 -0.0504839 -0.0120851 0 8.9581 -0.526302 0.0318927 -0.0504795 -0.0120974 0 18.4163 -4.35419 -0.0836064 1.52803 -0.0451297 1.05879e-022 8.97127 1.78542 0.44464 0.519804 -0.171313 6.14423 15.3316 -3.79324 -0.613097 -0.0591023 4.01918 9.01906 -1.11411 -1.79347 -1.89744 1.07795 -3.72555 27.687 0 0 -0.0177126 -9.51124 4.64273e-012 27.8738 0 0 2.6909 -1.08086 -0.573603 -6.14423 15.3316 -3.79324 6.54746 0.264872 -1.69657 -9.01884 -1.11411 -1.79347 -7.49962 10.0502 10.9388 -27.0381 0.00109999 5.96046e-008 2.312 -9.67001 1.28029e-007 -28.5227 0 0 -8.37979 -0.473362 1.74115 
